# xmcd CD database file
#
# Track frame offsets:
#	150
#	26499
#	77645
#	86974
#	121912
#	147111
#	158025
#	191644
#	218056
#	235407
#
# Disc length: 3525 seconds
#
# Revision: 0
# Processed by: cddbd v1.5.2PL0 Copyright (c) Steve Scherf et al.
# Submitted via: CDex 1.51
#
DISCID=810dc30a
DTITLE=Frank Lozano - Clour Field
DYEAR=2007
DGENRE=Jazz
TTITLE0=Cast
TTITLE1=Village
TTITLE2=Rothko
TTITLE3=Buciumeana
TTITLE4=New Man
TTITLE5=Kandinsky
TTITLE6=Now Won
TTITLE7=L.R.P.
TTITLE8=Fleurette Africaine
TTITLE9=Center Of Gravity
EXTD=YEAR: 2007
EXTT0=
EXTT1=
EXTT2=
EXTT3=
EXTT4=
EXTT5=
EXTT6=
EXTT7=
EXTT8=
EXTT9=
PLAYORDER=
